<?xml version="1.0" encoding="UTF-8" standalone="no"?>
<svg
   xmlns:dc="http://purl.org/dc/elements/1.1/"
   xmlns:cc="http://creativecommons.org/ns#"
   xmlns:rdf="http://www.w3.org/1999/02/22-rdf-syntax-ns#"
   xmlns:svg="http://www.w3.org/2000/svg"
   xmlns="http://www.w3.org/2000/svg"
   xmlns:sodipodi="http://sodipodi.sourceforge.net/DTD/sodipodi-0.dtd"
   xmlns:inkscape="http://www.inkscape.org/namespaces/inkscape"
   width="1.73in"
   height="2in"
   viewBox="0 0 43.942002 50.800001"
   version="1.1"
   id="svg8"
   sodipodi:docname="logo.svg"
   inkscape:version="1.0.1 (c497b03c, 2020-09-10)"
   inkscape:export-filename="/Users/caldwellst/Documents/repos/packages/goalie/man/figures/logo.png"
   inkscape:export-xdpi="1200"
   inkscape:export-ydpi="1200">
  <defs
     id="defs2" />
  <sodipodi:namedview
     id="base"
     pagecolor="#ffffff"
     bordercolor="#666666"
     borderopacity="1.0"
     inkscape:pageopacity="0.0"
     inkscape:pageshadow="2"
     inkscape:zoom="2.8284271"
     inkscape:cx="41.992522"
     inkscape:cy="106.32344"
     inkscape:document-units="mm"
     inkscape:current-layer="layer1"
     inkscape:document-rotation="0"
     showgrid="false"
     units="in"
     inkscape:window-width="1252"
     inkscape:window-height="943"
     inkscape:window-x="0"
     inkscape:window-y="25"
     inkscape:window-maximized="0" />
  <metadata
     id="metadata5">
    <rdf:RDF>
      <cc:Work
         rdf:about="">
        <dc:format>image/svg+xml</dc:format>
        <dc:type
           rdf:resource="http://purl.org/dc/dcmitype/StillImage" />
        <dc:title />
      </cc:Work>
    </rdf:RDF>
  </metadata>
  <g
     inkscape:label="Layer 1"
     inkscape:groupmode="layer"
     id="layer1">
    <path
       sodipodi:type="star"
       style="fill:#333333;fill-rule:evenodd;stroke-width:0.264583"
       id="path25"
       sodipodi:sides="6"
       sodipodi:cx="22.226181"
       sodipodi:cy="25.664583"
       sodipodi:r1="25.664583"
       sodipodi:r2="22.226181"
       sodipodi:arg1="-1.5707963"
       sodipodi:arg2="-1.0471976"
       inkscape:flatsided="true"
       inkscape:rounded="0"
       inkscape:randomized="0"
       d="m 22.226182,0 22.22618,12.832292 0,25.664583 L 22.22618,51.329166 -3.4765502e-7,38.496874 3.4002481e-7,12.832291 Z"
       transform="scale(0.98851888,0.98969073)" />
    <g
       id="g1163"
       transform="matrix(1.6444075,0,0,1.6444075,-70.939303,-43.513602)">
      <g
         id="g684"
         transform="matrix(0.35277777,0,0,-0.35277777,51.17156,38.781016)"
         style="fill:#ffffff">
        <path
           d="M 0,0 C 0.773,1.313 1.71,2.517 2.785,3.583 L -6.347,13.596 C -8.644,11.401 -10.604,8.855 -12.145,6.05 Z"
           style="fill:#ffffff;fill-opacity:1;fill-rule:nonzero;stroke:none"
           id="path686" />
      </g>
      <g
         id="g688"
         transform="matrix(0.35277777,0,0,-0.35277777,59.069018,36.285466)"
         style="fill:#ffffff">
        <path
           d="m 0,0 c 1.383,-0.633 2.669,-1.441 3.829,-2.399 l 9.158,9.998 c -2.412,2.08 -5.147,3.796 -8.116,5.064 z"
           style="fill:#ffffff;fill-opacity:1;fill-rule:nonzero;stroke:none"
           id="path690" />
      </g>
      <g
         id="g692"
         transform="matrix(0.35277777,0,0,-0.35277777,66.467509,37.347538)"
         style="fill:#ffffff">
        <path
           d="m 0,0 -12.137,-6.051 c 0.579,-1.352 0.991,-2.789 1.215,-4.288 L 2.58,-9.064 C 2.181,-5.868 1.297,-2.82 0,0"
           style="fill:#ffffff;fill-opacity:1;fill-rule:nonzero;stroke:none"
           id="path694" />
      </g>
      <g
         id="g696"
         transform="matrix(0.35277777,0,0,-0.35277777,61.87847,38.863248)"
         style="fill:#ffffff">
        <path
           d="m 0,0 12.136,6.05 c -1.503,2.793 -3.42,5.331 -5.671,7.53 L -2.693,3.583 C -1.65,2.512 -0.743,1.309 0,0"
           style="fill:#ffffff;fill-opacity:1;fill-rule:nonzero;stroke:none"
           id="path698" />
      </g>
      <g
         id="g700"
         transform="matrix(0.35277777,0,0,-0.35277777,50.320623,41.905991)"
         style="fill:#ffffff">
        <path
           d="M 0,0 C 0,0.273 0.009,0.547 0.021,0.817 L -13.484,2.026 C -13.526,1.357 -13.552,0.682 -13.552,0 c 0,-2.59 0.322,-5.106 0.919,-7.512 L 0.411,-3.77 C 0.143,-2.555 0,-1.294 0,0"
           style="fill:#ffffff;fill-opacity:1;fill-rule:nonzero;stroke:none"
           id="path702" />
      </g>
      <g
         id="g704"
         transform="matrix(0.35277777,0,0,-0.35277777,61.27889,45.821684)"
         style="fill:#ffffff">
        <path
           d="m 0,0 c -0.96,-1.168 -2.068,-2.21 -3.294,-3.098 l 7.131,-11.545 c 2.646,1.793 5.002,3.983 6.983,6.485 z"
           style="fill:#ffffff;fill-opacity:1;fill-rule:nonzero;stroke:none"
           id="path706" />
      </g>
      <g
         id="g708"
         transform="matrix(0.35277777,0,0,-0.35277777,62.680933,41.905991)"
         style="fill:#ffffff">
        <path
           d="M 0,0 C 0,-1.278 -0.137,-2.525 -0.401,-3.726 L 12.64,-7.473 c 0.595,2.395 0.912,4.898 0.912,7.473 0,0.64 -0.021,1.275 -0.061,1.907 L -0.012,0.632 C -0.005,0.42 0,0.211 0,0"
           style="fill:#ffffff;fill-opacity:1;fill-rule:nonzero;stroke:none"
           id="path710" />
      </g>
      <g
         id="g712"
         transform="matrix(0.35277777,0,0,-0.35277777,51.799856,45.912769)"
         style="fill:#ffffff">
        <path
           d="m 0,0 -10.794,-8.204 c 2.008,-2.472 4.385,-4.626 7.049,-6.386 L 3.384,-3.057 C 2.128,-2.189 0.99,-1.159 0,0"
           style="fill:#ffffff;fill-opacity:1;fill-rule:nonzero;stroke:none"
           id="path714" />
      </g>
      <g
         id="g716"
         transform="matrix(0.35277777,0,0,-0.35277777,50.397813,40.930173)"
         style="fill:#ffffff">
        <path
           d="m 0,0 c 0.242,1.525 0.684,2.984 1.294,4.35 l -12.133,6.045 c -1.341,-2.853 -2.26,-5.941 -2.678,-9.183 z"
           style="fill:#ffffff;fill-opacity:1;fill-rule:nonzero;stroke:none"
           id="path718" />
      </g>
      <g
         id="g720"
         transform="matrix(0.35277777,0,0,-0.35277777,62.04724,51.355883)"
         style="fill:#ffffff">
        <path
           d="M 0,0 -7.12,11.53 C -8.414,10.799 -9.807,10.226 -11.275,9.841 L -8.762,-3.496 C -5.636,-2.778 -2.688,-1.585 0,0"
           style="fill:#ffffff;fill-opacity:1;fill-rule:nonzero;stroke:none"
           id="path722" />
      </g>
      <g
         id="g724"
         transform="matrix(0.35277777,0,0,-0.35277777,62.356167,43.88659)"
         style="fill:#ffffff">
        <path
           d="m 0,0 c -0.473,-1.387 -1.111,-2.696 -1.896,-3.903 l 10.829,-8.168 c 1.758,2.528 3.148,5.328 4.098,8.326 z"
           style="fill:#ffffff;fill-opacity:1;fill-rule:nonzero;stroke:none"
           id="path726" />
      </g>
      <g
         id="g728"
         transform="matrix(0.35277777,0,0,-0.35277777,57.392161,48.02143)"
         style="fill:#ffffff">
        <path
           d="m 0,0 c -0.824,-0.119 -1.668,-0.184 -2.527,-0.184 -0.689,0 -1.37,0.043 -2.039,0.12 l -2.512,-13.337 c 1.487,-0.218 3.006,-0.333 4.551,-0.333 1.715,0 3.398,0.141 5.037,0.409 z"
           style="fill:#ffffff;fill-opacity:1;fill-rule:nonzero;stroke:none"
           id="path730" />
      </g>
      <g
         id="g732"
         transform="matrix(0.35277777,0,0,-0.35277777,56.895874,35.738025)"
         style="fill:#ffffff">
        <path
           d="M 0,0 C 1.505,-0.097 2.959,-0.383 4.335,-0.837 L 9.206,11.822 C 6.308,12.845 3.217,13.451 0,13.564 Z"
           style="fill:#ffffff;fill-opacity:1;fill-rule:nonzero;stroke:none"
           id="path734" />
      </g>
      <g
         id="g736"
         transform="matrix(0.35277777,0,0,-0.35277777,55.100305,47.926074)"
         style="fill:#ffffff">
        <path
           d="m 0,0 c -1.518,0.354 -2.961,0.906 -4.3,1.626 l -7.134,-11.538 c 2.744,-1.57 5.745,-2.733 8.925,-3.411 z"
           style="fill:#ffffff;fill-opacity:1;fill-rule:nonzero;stroke:none"
           id="path738" />
      </g>
      <g
         id="g740"
         transform="matrix(0.35277777,0,0,-0.35277777,54.643492,36.011252)"
         style="fill:#ffffff">
        <path
           d="M 0,0 C 1.407,0.445 2.89,0.716 4.426,0.787 V 14.349 C 1.165,14.263 -1.967,13.669 -4.904,12.65 Z"
           style="fill:#ffffff;fill-opacity:1;fill-rule:nonzero;stroke:none"
           id="path742" />
      </g>
      <g
         id="g744"
         transform="matrix(0.35277777,0,0,-0.35277777,51.380793,45.362931)"
         style="fill:#ffffff">
        <path
           d="M 0,0 C -0.86,1.271 -1.562,2.663 -2.066,4.143 L -15.1,0.402 c 0.987,-3.108 2.45,-6.005 4.305,-8.606 z"
           style="fill:#ffffff;fill-opacity:1;fill-rule:nonzero;stroke:none"
           id="path746" />
      </g>
      <g
         id="g748"
         transform="matrix(0.35277777,0,0,-0.35277777,52.671605,37.058367)">
        <path
           d="M 0,0 C 1.146,0.907 2.406,1.672 3.757,2.273 L -1.144,14.917 C -4.063,13.691 -6.753,12.032 -9.138,10.021 Z"
           style="fill:#ffffff;fill-opacity:1;fill-rule:nonzero;stroke:none"
           id="path750" />
      </g>
    </g>
    <text
       xml:space="preserve"
       style="font-style:normal;font-weight:normal;font-size:4.93889px;line-height:1.25;font-family:sans-serif;fill:#000000;fill-opacity:1;stroke:none;stroke-width:0.264583"
       x="13.438875"
       y="27.155621"
       id="text54"><tspan
         sodipodi:role="line"
         id="tspan52"
         x="13.438875"
         y="27.155621"
         style="font-style:normal;font-variant:normal;font-weight:bold;font-stretch:normal;font-size:4.93889px;font-family:Roboto;-inkscape-font-specification:'Roboto Bold';fill:#ffffff;fill-opacity:1;stroke-width:0.264583">GOALIE</tspan></text>
  </g>
</svg>
